<svg xmlns="http://www.w3.org/2000/svg" xmlns:xlink="http://www.w3.org/1999/xlink" width="64" zoomAndPan="magnify" viewBox="0 0 48 48" height="64" preserveAspectRatio="xMidYMid meet" version="1.0"><defs><clipPath id="48706fe6f3"><path d="M 0.488281 0 L 47.507812 0 L 47.507812 47.019531 L 0.488281 47.019531 Z M 0.488281 0 " clip-rule="nonzero"/></clipPath><clipPath id="1e3140ee70"><path d="M 24 0 C 11.015625 0 0.488281 10.527344 0.488281 23.511719 C 0.488281 36.496094 11.015625 47.019531 24 47.019531 C 36.984375 47.019531 47.511719 36.496094 47.511719 23.511719 C 47.511719 10.527344 36.984375 0 24 0 Z M 24 0 " clip-rule="nonzero"/></clipPath><clipPath id="afffa10bd7"><path d="M 0.488281 0 L 47.234375 0 L 47.234375 46.746094 L 0.488281 46.746094 Z M 0.488281 0 " clip-rule="nonzero"/></clipPath><clipPath id="05c29f0133"><path d="M 23.992188 0 C 11.011719 0 0.488281 10.523438 0.488281 23.503906 C 0.488281 36.484375 11.011719 47.007812 23.992188 47.007812 C 36.972656 47.007812 47.496094 36.484375 47.496094 23.503906 C 47.496094 10.523438 36.972656 0 23.992188 0 Z M 23.992188 0 " clip-rule="nonzero"/></clipPath><clipPath id="00efcd27d6"><path d="M 15.859375 8.539062 L 32.554688 8.539062 L 32.554688 38.589844 L 15.859375 38.589844 Z M 15.859375 8.539062 " clip-rule="nonzero"/></clipPath></defs><g clip-path="url(#48706fe6f3)"><g clip-path="url(#1e3140ee70)"><path fill="#cba6f7" d="M 0.488281 0 L 47.511719 0 L 47.511719 47.019531 L 0.488281 47.019531 Z M 0.488281 0 " fill-opacity="1" fill-rule="nonzero"/></g></g><g clip-path="url(#afffa10bd7)"><g clip-path="url(#05c29f0133)"><path stroke-linecap="butt" transform="matrix(1.669505, 0, 0, 1.669505, 0.489796, 0.00000195918)" fill="none" stroke-linejoin="miter" d="M 14.077465 -0.00000117351 C 6.302422 -0.00000117351 -0.000907139 6.303328 -0.000907139 14.078371 C -0.000907139 21.853413 6.302422 28.156743 14.077465 28.156743 C 21.852507 28.156743 28.155837 21.853413 28.155837 14.078371 C 28.155837 6.303328 21.852507 -0.00000117351 14.077465 -0.00000117351 Z M 14.077465 -0.00000117351 " stroke="#585b70" stroke-width="0.440067" stroke-opacity="1" stroke-miterlimit="4"/></g></g><g clip-path="url(#00efcd27d6)"><path fill="#181825" d="M 30.054688 34.515625 L 29.191406 34.515625 L 29.191406 28.832031 C 29.191406 28.488281 29.15625 28.144531 29.085938 27.804688 C 28.984375 27.289062 28.808594 26.804688 28.558594 26.34375 C 28.308594 25.882812 27.996094 25.46875 27.621094 25.101562 C 27.246094 24.734375 26.824219 24.433594 26.359375 24.195312 C 25.890625 23.957031 25.402344 23.792969 24.882812 23.703125 L 24.882812 23.296875 C 25.488281 23.1875 26.054688 22.984375 26.585938 22.675781 C 27.117188 22.371094 27.578125 21.980469 27.972656 21.511719 C 28.367188 21.042969 28.667969 20.519531 28.878906 19.945312 C 29.085938 19.367188 29.191406 18.773438 29.191406 18.160156 L 29.191406 12.480469 L 30.054688 12.480469 C 30.316406 12.484375 30.566406 12.4375 30.808594 12.339844 C 31.050781 12.242188 31.261719 12.101562 31.449219 11.917969 C 31.632812 11.734375 31.777344 11.523438 31.878906 11.285156 C 31.976562 11.042969 32.027344 10.792969 32.027344 10.535156 C 32.027344 10.273438 31.976562 10.023438 31.878906 9.78125 C 31.777344 9.542969 31.632812 9.332031 31.449219 9.148438 C 31.261719 8.964844 31.050781 8.824219 30.808594 8.726562 C 30.566406 8.632812 30.316406 8.585938 30.054688 8.585938 L 17.910156 8.585938 C 17.648438 8.585938 17.398438 8.632812 17.15625 8.726562 C 16.914062 8.824219 16.703125 8.964844 16.515625 9.148438 C 16.332031 9.332031 16.1875 9.542969 16.085938 9.78125 C 15.988281 10.023438 15.9375 10.273438 15.9375 10.535156 C 15.9375 10.792969 15.988281 11.042969 16.085938 11.285156 C 16.1875 11.523438 16.332031 11.734375 16.515625 11.917969 C 16.703125 12.101562 16.914062 12.242188 17.15625 12.339844 C 17.398438 12.4375 17.648438 12.484375 17.910156 12.480469 L 18.773438 12.480469 L 18.773438 18.160156 C 18.773438 18.773438 18.878906 19.367188 19.085938 19.945312 C 19.296875 20.519531 19.597656 21.042969 19.992188 21.511719 C 20.386719 21.980469 20.847656 22.371094 21.378906 22.675781 C 21.910156 22.984375 22.476562 23.1875 23.082031 23.296875 L 23.082031 23.703125 C 22.476562 23.808594 21.910156 24.015625 21.378906 24.320312 C 20.847656 24.628906 20.386719 25.015625 19.992188 25.484375 C 19.597656 25.953125 19.296875 26.476562 19.089844 27.050781 C 18.878906 27.628906 18.773438 28.222656 18.773438 28.832031 L 18.773438 34.515625 L 17.910156 34.515625 C 17.648438 34.511719 17.398438 34.558594 17.15625 34.65625 C 16.914062 34.753906 16.703125 34.894531 16.515625 35.078125 C 16.332031 35.261719 16.1875 35.472656 16.089844 35.710938 C 15.988281 35.953125 15.9375 36.203125 15.9375 36.460938 C 15.9375 36.722656 15.988281 36.972656 16.089844 37.214844 C 16.1875 37.453125 16.332031 37.664062 16.515625 37.847656 C 16.703125 38.03125 16.914062 38.171875 17.15625 38.269531 C 17.398438 38.363281 17.648438 38.410156 17.910156 38.410156 L 30.054688 38.410156 C 30.316406 38.410156 30.566406 38.363281 30.808594 38.269531 C 31.050781 38.171875 31.265625 38.03125 31.449219 37.847656 C 31.632812 37.664062 31.777344 37.453125 31.878906 37.214844 C 31.976562 36.972656 32.027344 36.722656 32.027344 36.460938 C 32.027344 36.203125 31.976562 35.953125 31.878906 35.710938 C 31.777344 35.472656 31.632812 35.261719 31.449219 35.078125 C 31.265625 34.894531 31.050781 34.753906 30.808594 34.65625 C 30.566406 34.558594 30.316406 34.511719 30.054688 34.515625 Z M 16.628906 10.535156 C 16.628906 10.367188 16.660156 10.203125 16.726562 10.046875 C 16.792969 9.886719 16.882812 9.75 17.003906 9.628906 C 17.125 9.511719 17.261719 9.417969 17.417969 9.351562 C 17.574219 9.289062 17.738281 9.253906 17.910156 9.253906 L 30.054688 9.253906 C 30.226562 9.25 30.394531 9.28125 30.554688 9.347656 C 30.710938 9.410156 30.851562 9.5 30.976562 9.621094 C 31.097656 9.742188 31.191406 9.882812 31.257812 10.039062 C 31.324219 10.199219 31.359375 10.363281 31.359375 10.535156 C 31.359375 10.707031 31.324219 10.871094 31.257812 11.03125 C 31.191406 11.1875 31.097656 11.328125 30.976562 11.449219 C 30.851562 11.566406 30.710938 11.660156 30.554688 11.722656 C 30.394531 11.789062 30.226562 11.816406 30.054688 11.816406 L 17.910156 11.816406 C 17.738281 11.816406 17.574219 11.78125 17.417969 11.71875 C 17.261719 11.652344 17.125 11.558594 17.003906 11.441406 C 16.882812 11.320312 16.792969 11.183594 16.726562 11.023438 C 16.660156 10.867188 16.628906 10.703125 16.628906 10.535156 Z M 28.515625 28.632812 C 28.515625 28.699219 28.523438 28.765625 28.523438 28.832031 L 28.523438 34.511719 L 19.441406 34.511719 L 19.441406 32.578125 C 21.15625 32.558594 22.804688 32.207031 24.378906 31.523438 C 25.953125 30.839844 27.332031 29.875 28.515625 28.632812 Z M 28.523438 16.316406 C 27.117188 16.902344 25.65625 17.203125 24.132812 17.222656 C 22.507812 17.238281 20.941406 16.9375 19.4375 16.316406 L 19.4375 12.480469 L 28.523438 12.480469 Z M 23.453125 24.320312 C 23.648438 24.300781 23.746094 24.1875 23.746094 23.992188 L 23.746094 23.007812 C 23.746094 22.808594 23.648438 22.699219 23.453125 22.675781 C 22.898438 22.613281 22.375 22.449219 21.882812 22.191406 C 21.386719 21.933594 20.957031 21.597656 20.585938 21.183594 C 20.21875 20.765625 19.933594 20.296875 19.734375 19.777344 C 19.539062 19.257812 19.441406 18.71875 19.441406 18.160156 L 19.441406 17.035156 C 20.902344 17.601562 22.417969 17.886719 23.988281 17.890625 L 24.140625 17.890625 C 25.652344 17.871094 27.113281 17.585938 28.523438 17.039062 L 28.523438 18.160156 C 28.523438 18.71875 28.425781 19.257812 28.230469 19.777344 C 28.03125 20.296875 27.746094 20.765625 27.378906 21.183594 C 27.007812 21.597656 26.578125 21.9375 26.082031 22.191406 C 25.589844 22.449219 25.066406 22.613281 24.511719 22.675781 C 24.316406 22.699219 24.21875 22.808594 24.21875 23.007812 L 24.21875 23.992188 C 24.21875 24.1875 24.316406 24.300781 24.511719 24.320312 C 24.976562 24.375 25.417969 24.496094 25.84375 24.6875 C 26.269531 24.878906 26.65625 25.128906 27.003906 25.441406 C 27.351562 25.75 27.644531 26.105469 27.882812 26.507812 C 28.121094 26.90625 28.292969 27.335938 28.398438 27.789062 C 28.390625 27.792969 28.378906 27.800781 28.371094 27.808594 C 27.242188 29.09375 25.898438 30.09375 24.34375 30.808594 C 22.785156 31.523438 21.152344 31.890625 19.441406 31.910156 L 19.441406 28.832031 C 19.441406 28.277344 19.539062 27.738281 19.738281 27.21875 C 19.933594 26.699219 20.21875 26.230469 20.589844 25.8125 C 20.957031 25.398438 21.390625 25.0625 21.882812 24.804688 C 22.375 24.546875 22.898438 24.386719 23.453125 24.320312 Z M 30.054688 37.742188 L 17.910156 37.742188 C 17.738281 37.746094 17.570312 37.714844 17.414062 37.648438 C 17.253906 37.585938 17.113281 37.496094 16.988281 37.375 C 16.867188 37.253906 16.773438 37.113281 16.707031 36.957031 C 16.640625 36.796875 16.605469 36.632812 16.605469 36.460938 C 16.605469 36.289062 16.640625 36.125 16.707031 35.964844 C 16.773438 35.808594 16.867188 35.667969 16.988281 35.546875 C 17.113281 35.429688 17.253906 35.335938 17.414062 35.273438 C 17.570312 35.207031 17.738281 35.179688 17.910156 35.179688 L 30.054688 35.179688 C 30.226562 35.179688 30.394531 35.207031 30.554688 35.273438 C 30.710938 35.335938 30.851562 35.429688 30.976562 35.546875 C 31.097656 35.667969 31.191406 35.808594 31.257812 35.964844 C 31.324219 36.125 31.359375 36.289062 31.359375 36.460938 C 31.359375 36.632812 31.324219 36.796875 31.257812 36.957031 C 31.191406 37.113281 31.097656 37.253906 30.976562 37.375 C 30.851562 37.496094 30.710938 37.585938 30.554688 37.648438 C 30.394531 37.714844 30.226562 37.746094 30.054688 37.742188 Z M 23.648438 27.171875 L 23.648438 26 C 23.648438 25.910156 23.683594 25.832031 23.746094 25.765625 C 23.8125 25.703125 23.890625 25.667969 23.984375 25.667969 C 24.074219 25.667969 24.152344 25.703125 24.21875 25.765625 C 24.28125 25.832031 24.316406 25.910156 24.316406 26 L 24.316406 27.171875 C 24.316406 27.265625 24.28125 27.34375 24.21875 27.410156 C 24.152344 27.472656 24.074219 27.507812 23.984375 27.507812 C 23.890625 27.507812 23.8125 27.472656 23.746094 27.410156 C 23.683594 27.34375 23.648438 27.265625 23.648438 27.171875 Z M 22.386719 27.871094 L 22.386719 26.585938 C 22.386719 26.496094 22.417969 26.417969 22.480469 26.351562 C 22.546875 26.285156 22.625 26.253906 22.71875 26.253906 C 22.808594 26.253906 22.886719 26.285156 22.953125 26.351562 C 23.019531 26.417969 23.050781 26.496094 23.050781 26.585938 L 23.050781 27.871094 C 23.050781 27.960938 23.019531 28.039062 22.953125 28.105469 C 22.886719 28.171875 22.808594 28.203125 22.71875 28.203125 C 22.625 28.203125 22.546875 28.171875 22.480469 28.105469 C 22.417969 28.039062 22.386719 27.960938 22.386719 27.871094 Z M 24.664062 29.207031 L 24.664062 28.273438 C 24.664062 28.179688 24.699219 28.101562 24.761719 28.039062 C 24.828125 27.972656 24.90625 27.941406 25 27.941406 C 25.089844 27.941406 25.167969 27.972656 25.234375 28.039062 C 25.300781 28.101562 25.332031 28.179688 25.332031 28.273438 L 25.332031 29.207031 C 25.332031 29.300781 25.300781 29.378906 25.234375 29.441406 C 25.167969 29.507812 25.089844 29.539062 25 29.539062 C 24.90625 29.539062 24.828125 29.507812 24.761719 29.441406 C 24.699219 29.378906 24.664062 29.300781 24.664062 29.207031 Z M 22.386719 30.253906 L 22.386719 29.609375 C 22.386719 29.519531 22.417969 29.441406 22.480469 29.375 C 22.546875 29.308594 22.625 29.277344 22.71875 29.277344 C 22.808594 29.277344 22.886719 29.308594 22.953125 29.375 C 23.019531 29.441406 23.050781 29.519531 23.050781 29.609375 L 23.050781 30.253906 C 23.050781 30.347656 23.019531 30.425781 22.953125 30.492188 C 22.886719 30.554688 22.808594 30.589844 22.71875 30.589844 C 22.625 30.589844 22.546875 30.554688 22.480469 30.492188 C 22.417969 30.425781 22.386719 30.347656 22.386719 30.253906 Z M 22.386719 30.253906 " fill-opacity="1" fill-rule="nonzero"/></g></svg>