<svg xmlns="http://www.w3.org/2000/svg" xmlns:xlink="http://www.w3.org/1999/xlink" width="100" zoomAndPan="magnify" viewBox="0 0 75 30.000001" height="40" preserveAspectRatio="xMidYMid meet" version="1.0"><defs><g/><clipPath id="a1a97adb50"><path d="M 4.105469 4.355469 L 24.550781 4.355469 L 24.550781 24.796875 L 4.105469 24.796875 Z M 4.105469 4.355469 " clip-rule="nonzero"/></clipPath><clipPath id="73b061180e"><path d="M 14.328125 4.355469 C 8.683594 4.355469 4.105469 8.933594 4.105469 14.578125 C 4.105469 20.222656 8.683594 24.796875 14.328125 24.796875 C 19.972656 24.796875 24.550781 20.222656 24.550781 14.578125 C 24.550781 8.933594 19.972656 4.355469 14.328125 4.355469 Z M 14.328125 4.355469 " clip-rule="nonzero"/></clipPath><clipPath id="2e91d5147b"><path d="M 4.105469 4.355469 L 24.429688 4.355469 L 24.429688 24.679688 L 4.105469 24.679688 Z M 4.105469 4.355469 " clip-rule="nonzero"/></clipPath><clipPath id="377289ae60"><path d="M 14.324219 4.355469 C 8.683594 4.355469 4.105469 8.929688 4.105469 14.574219 C 4.105469 20.21875 8.683594 24.792969 14.324219 24.792969 C 19.96875 24.792969 24.542969 20.21875 24.542969 14.574219 C 24.542969 8.929688 19.96875 4.355469 14.324219 4.355469 Z M 14.324219 4.355469 " clip-rule="nonzero"/></clipPath><clipPath id="26b0e6f000"><path d="M 10.789062 8.066406 L 18 8.066406 L 18 21.132812 L 10.789062 21.132812 Z M 10.789062 8.066406 " clip-rule="nonzero"/></clipPath></defs><g clip-path="url(#a1a97adb50)"><g clip-path="url(#73b061180e)"><path fill="#cba6f7" d="M 4.105469 4.355469 L 24.550781 4.355469 L 24.550781 24.796875 L 4.105469 24.796875 Z M 4.105469 4.355469 " fill-opacity="1" fill-rule="nonzero"/></g></g><g clip-path="url(#2e91d5147b)"><g clip-path="url(#377289ae60)"><path stroke-linecap="butt" transform="matrix(0.725806, 0, 0, 0.725806, 4.107419, 4.356583)" fill="none" stroke-linejoin="miter" d="M 14.07648 -0.00153584 C 6.304952 -0.00153584 -0.00268673 6.300721 -0.00268673 14.077631 C -0.00268673 21.854541 6.304952 28.156798 14.07648 28.156798 C 21.85339 28.156798 28.155647 21.854541 28.155647 14.077631 C 28.155647 6.300721 21.85339 -0.00153584 14.07648 -0.00153584 Z M 14.07648 -0.00153584 " stroke="#585b70" stroke-width="1" stroke-opacity="1" stroke-miterlimit="4"/></g></g><g clip-path="url(#26b0e6f000)"><path fill="#181825" d="M 16.960938 19.363281 L 16.585938 19.363281 L 16.585938 16.890625 C 16.585938 16.742188 16.570312 16.59375 16.539062 16.445312 C 16.449219 15.988281 16.238281 15.59375 15.902344 15.269531 C 15.570312 14.945312 15.171875 14.742188 14.710938 14.660156 L 14.710938 14.484375 C 14.976562 14.4375 15.222656 14.347656 15.453125 14.214844 C 15.683594 14.082031 15.882812 13.914062 16.054688 13.710938 C 16.226562 13.503906 16.359375 13.277344 16.449219 13.027344 C 16.539062 12.777344 16.585938 12.519531 16.585938 12.25 L 16.585938 9.78125 L 16.960938 9.78125 C 17.195312 9.785156 17.398438 9.703125 17.566406 9.539062 C 17.734375 9.371094 17.816406 9.171875 17.816406 8.9375 C 17.816406 8.699219 17.734375 8.5 17.566406 8.332031 C 17.398438 8.167969 17.195312 8.085938 16.960938 8.089844 L 11.679688 8.089844 C 11.445312 8.085938 11.242188 8.167969 11.074219 8.332031 C 10.90625 8.5 10.824219 8.699219 10.824219 8.9375 C 10.824219 9.171875 10.90625 9.371094 11.074219 9.539062 C 11.242188 9.703125 11.445312 9.785156 11.679688 9.78125 L 12.054688 9.78125 L 12.054688 12.25 C 12.054688 12.519531 12.101562 12.777344 12.191406 13.027344 C 12.285156 13.277344 12.414062 13.503906 12.585938 13.710938 C 12.757812 13.914062 12.957031 14.082031 13.1875 14.214844 C 13.417969 14.347656 13.667969 14.4375 13.929688 14.484375 L 13.929688 14.660156 C 13.667969 14.707031 13.421875 14.796875 13.1875 14.929688 C 12.957031 15.0625 12.757812 15.230469 12.585938 15.4375 C 12.414062 15.640625 12.285156 15.867188 12.191406 16.117188 C 12.101562 16.367188 12.054688 16.625 12.058594 16.890625 L 12.058594 19.363281 L 11.679688 19.363281 C 11.445312 19.359375 11.242188 19.441406 11.074219 19.605469 C 10.90625 19.773438 10.824219 19.972656 10.824219 20.207031 C 10.824219 20.445312 10.90625 20.644531 11.074219 20.8125 C 11.242188 20.976562 11.445312 21.058594 11.679688 21.054688 L 16.960938 21.054688 C 17.195312 21.058594 17.398438 20.976562 17.566406 20.8125 C 17.734375 20.644531 17.820312 20.445312 17.820312 20.207031 C 17.820312 19.972656 17.734375 19.773438 17.566406 19.605469 C 17.398438 19.441406 17.195312 19.359375 16.960938 19.363281 Z M 11.125 8.9375 C 11.125 8.78125 11.179688 8.652344 11.285156 8.542969 C 11.394531 8.433594 11.527344 8.378906 11.679688 8.378906 L 16.960938 8.378906 C 17.117188 8.378906 17.25 8.429688 17.359375 8.539062 C 17.472656 8.648438 17.527344 8.78125 17.527344 8.9375 C 17.527344 9.09375 17.472656 9.222656 17.359375 9.332031 C 17.25 9.441406 17.117188 9.496094 16.960938 9.492188 L 11.679688 9.492188 C 11.527344 9.492188 11.394531 9.4375 11.285156 9.332031 C 11.179688 9.222656 11.125 9.089844 11.125 8.9375 Z M 16.292969 16.804688 C 16.292969 16.832031 16.296875 16.863281 16.296875 16.890625 L 16.296875 19.359375 L 12.347656 19.359375 L 12.347656 18.519531 C 13.09375 18.511719 13.808594 18.359375 14.492188 18.0625 C 15.175781 17.765625 15.777344 17.34375 16.292969 16.804688 Z M 16.296875 11.449219 C 15.683594 11.703125 15.046875 11.835938 14.386719 11.84375 C 13.679688 11.851562 13 11.71875 12.34375 11.449219 L 12.34375 9.78125 L 16.292969 9.78125 Z M 14.089844 14.929688 C 14.175781 14.921875 14.21875 14.871094 14.21875 14.785156 L 14.21875 14.359375 C 14.21875 14.273438 14.175781 14.226562 14.089844 14.214844 C 13.851562 14.1875 13.621094 14.117188 13.40625 14.003906 C 13.191406 13.894531 13.003906 13.746094 12.84375 13.566406 C 12.683594 13.382812 12.558594 13.179688 12.472656 12.953125 C 12.390625 12.726562 12.347656 12.492188 12.347656 12.25 L 12.347656 11.761719 C 12.980469 12.007812 13.640625 12.132812 14.324219 12.132812 L 14.390625 12.132812 C 15.046875 12.125 15.683594 12.003906 16.296875 11.761719 L 16.296875 12.253906 C 16.296875 12.496094 16.253906 12.726562 16.167969 12.953125 C 16.082031 13.179688 15.957031 13.382812 15.796875 13.566406 C 15.636719 13.746094 15.449219 13.894531 15.234375 14.003906 C 15.019531 14.117188 14.792969 14.1875 14.550781 14.214844 C 14.464844 14.226562 14.421875 14.273438 14.421875 14.359375 L 14.421875 14.785156 C 14.421875 14.871094 14.464844 14.921875 14.550781 14.929688 C 14.964844 14.976562 15.324219 15.140625 15.632812 15.417969 C 15.945312 15.691406 16.144531 16.03125 16.242188 16.4375 C 16.238281 16.441406 16.234375 16.441406 16.230469 16.445312 C 15.738281 17.003906 15.152344 17.441406 14.476562 17.75 C 13.800781 18.0625 13.089844 18.222656 12.347656 18.230469 L 12.347656 16.890625 C 12.347656 16.648438 12.390625 16.414062 12.476562 16.191406 C 12.5625 15.964844 12.683594 15.761719 12.84375 15.578125 C 13.003906 15.398438 13.195312 15.253906 13.40625 15.140625 C 13.621094 15.027344 13.851562 14.957031 14.089844 14.929688 Z M 16.960938 20.765625 L 11.679688 20.765625 C 11.523438 20.765625 11.390625 20.714844 11.28125 20.605469 C 11.167969 20.496094 11.113281 20.363281 11.113281 20.207031 C 11.113281 20.050781 11.167969 19.921875 11.28125 19.8125 C 11.390625 19.703125 11.523438 19.648438 11.679688 19.652344 L 16.960938 19.652344 C 17.117188 19.648438 17.25 19.703125 17.359375 19.8125 C 17.472656 19.921875 17.527344 20.050781 17.527344 20.207031 C 17.527344 20.363281 17.472656 20.496094 17.359375 20.605469 C 17.25 20.714844 17.117188 20.765625 16.960938 20.765625 Z M 14.175781 16.167969 L 14.175781 15.660156 C 14.175781 15.5625 14.222656 15.515625 14.320312 15.515625 C 14.417969 15.515625 14.464844 15.5625 14.464844 15.660156 L 14.464844 16.167969 C 14.464844 16.265625 14.417969 16.316406 14.320312 16.316406 C 14.222656 16.316406 14.175781 16.265625 14.175781 16.167969 Z M 13.625 16.472656 L 13.625 15.914062 C 13.625 15.820312 13.675781 15.769531 13.769531 15.769531 C 13.867188 15.769531 13.914062 15.820312 13.914062 15.914062 L 13.914062 16.472656 C 13.914062 16.570312 13.867188 16.617188 13.769531 16.617188 C 13.675781 16.617188 13.625 16.570312 13.625 16.472656 Z M 14.617188 17.054688 L 14.617188 16.648438 C 14.617188 16.550781 14.667969 16.503906 14.761719 16.503906 C 14.859375 16.503906 14.90625 16.550781 14.90625 16.648438 L 14.90625 17.054688 C 14.90625 17.152344 14.859375 17.199219 14.761719 17.199219 C 14.667969 17.199219 14.617188 17.152344 14.617188 17.054688 Z M 13.625 17.511719 L 13.625 17.230469 C 13.625 17.132812 13.675781 17.085938 13.769531 17.085938 C 13.867188 17.085938 13.914062 17.132812 13.914062 17.230469 L 13.914062 17.511719 C 13.914062 17.605469 13.867188 17.65625 13.769531 17.65625 C 13.675781 17.65625 13.625 17.605469 13.625 17.511719 Z M 13.625 17.511719 " fill-opacity="1" fill-rule="nonzero"/></g><g fill="#cdd6f4" fill-opacity="1"><g transform="translate(28.775869, 13.064518)"><g><path d="M 5.65625 -5.921875 L 3.546875 -5.921875 L 3.546875 0 L 2.25 0 L 2.25 -5.921875 L 0.140625 -5.921875 L 0.140625 -7 L 5.65625 -7 Z M 5.65625 -5.921875 "/></g></g></g><g fill="#cdd6f4" fill-opacity="1"><g transform="translate(34.580028, 13.064518)"><g><path d="M 2.078125 0 L 0.78125 0 L 0.78125 -7 L 2.078125 -7 Z M 2.078125 0 "/></g></g></g><g fill="#cdd6f4" fill-opacity="1"><g transform="translate(37.448246, 13.064518)"><g><path d="M 8.359375 -7 L 8.359375 0 L 7.21875 0 L 7.21875 -4.515625 C 7.21875 -4.691406 7.226562 -4.890625 7.25 -5.109375 L 5.125 -1.125 C 5.03125 -0.9375 4.878906 -0.84375 4.671875 -0.84375 L 4.484375 -0.84375 C 4.273438 -0.84375 4.125 -0.9375 4.03125 -1.125 L 1.890625 -5.109375 C 1.898438 -5.003906 1.90625 -4.898438 1.90625 -4.796875 C 1.914062 -4.691406 1.921875 -4.597656 1.921875 -4.515625 L 1.921875 0 L 0.78125 0 L 0.78125 -7 L 1.765625 -7 C 1.816406 -7 1.863281 -6.992188 1.90625 -6.984375 C 1.945312 -6.984375 1.984375 -6.972656 2.015625 -6.953125 C 2.054688 -6.941406 2.085938 -6.921875 2.109375 -6.890625 C 2.140625 -6.867188 2.171875 -6.832031 2.203125 -6.78125 L 4.296875 -2.90625 C 4.347656 -2.800781 4.394531 -2.691406 4.4375 -2.578125 C 4.488281 -2.472656 4.535156 -2.363281 4.578125 -2.25 C 4.617188 -2.363281 4.664062 -2.472656 4.71875 -2.578125 C 4.769531 -2.691406 4.820312 -2.800781 4.875 -2.90625 L 6.9375 -6.78125 C 6.96875 -6.832031 6.992188 -6.867188 7.015625 -6.890625 C 7.046875 -6.921875 7.078125 -6.941406 7.109375 -6.953125 C 7.148438 -6.972656 7.191406 -6.984375 7.234375 -6.984375 C 7.273438 -6.992188 7.320312 -7 7.375 -7 Z M 8.359375 -7 "/></g></g></g><g fill="#cdd6f4" fill-opacity="1"><g transform="translate(46.589801, 13.064518)"><g><path d="M 2.078125 -5.953125 L 2.078125 -4.015625 L 4.53125 -4.015625 L 4.53125 -3.015625 L 2.078125 -3.015625 L 2.078125 -1.046875 L 5.1875 -1.046875 L 5.1875 0 L 0.78125 0 L 0.78125 -7 L 5.1875 -7 L 5.1875 -5.953125 Z M 2.078125 -5.953125 "/></g></g></g><g fill="#cdd6f4" fill-opacity="1"><g transform="translate(28.775869, 22.500002)"><g><path d="M 2.890625 -3.671875 C 3.140625 -3.671875 3.351562 -3.695312 3.53125 -3.75 C 3.71875 -3.8125 3.867188 -3.894531 3.984375 -4 C 4.097656 -4.113281 4.179688 -4.242188 4.234375 -4.390625 C 4.296875 -4.546875 4.328125 -4.710938 4.328125 -4.890625 C 4.328125 -5.242188 4.207031 -5.515625 3.96875 -5.703125 C 3.738281 -5.890625 3.382812 -5.984375 2.90625 -5.984375 L 2.078125 -5.984375 L 2.078125 -3.671875 Z M 6.234375 0 L 5.0625 0 C 4.84375 0 4.679688 -0.0859375 4.578125 -0.265625 L 3.109375 -2.5 C 3.054688 -2.582031 2.992188 -2.640625 2.921875 -2.671875 C 2.859375 -2.710938 2.765625 -2.734375 2.640625 -2.734375 L 2.078125 -2.734375 L 2.078125 0 L 0.78125 0 L 0.78125 -7 L 2.90625 -7 C 3.382812 -7 3.789062 -6.945312 4.125 -6.84375 C 4.46875 -6.75 4.75 -6.613281 4.96875 -6.4375 C 5.1875 -6.257812 5.347656 -6.046875 5.453125 -5.796875 C 5.554688 -5.546875 5.609375 -5.273438 5.609375 -4.984375 C 5.609375 -4.742188 5.570312 -4.519531 5.5 -4.3125 C 5.425781 -4.101562 5.320312 -3.910156 5.1875 -3.734375 C 5.0625 -3.566406 4.898438 -3.414062 4.703125 -3.28125 C 4.515625 -3.15625 4.300781 -3.054688 4.0625 -2.984375 C 4.144531 -2.941406 4.222656 -2.882812 4.296875 -2.8125 C 4.367188 -2.75 4.429688 -2.671875 4.484375 -2.578125 Z M 6.234375 0 "/></g></g></g><g fill="#cdd6f4" fill-opacity="1"><g transform="translate(34.995991, 22.500002)"><g><path d="M 4.46875 -2.640625 L 3.625 -4.96875 C 3.582031 -5.070312 3.535156 -5.191406 3.484375 -5.328125 C 3.441406 -5.472656 3.398438 -5.628906 3.359375 -5.796875 C 3.316406 -5.628906 3.269531 -5.472656 3.21875 -5.328125 C 3.175781 -5.179688 3.132812 -5.054688 3.09375 -4.953125 L 2.25 -2.640625 Z M 6.765625 0 L 5.765625 0 C 5.648438 0 5.554688 -0.0234375 5.484375 -0.078125 C 5.410156 -0.140625 5.359375 -0.210938 5.328125 -0.296875 L 4.8125 -1.71875 L 1.90625 -1.71875 L 1.390625 -0.296875 C 1.359375 -0.222656 1.304688 -0.15625 1.234375 -0.09375 C 1.160156 -0.03125 1.070312 0 0.96875 0 L -0.046875 0 L 2.703125 -7 L 4.015625 -7 Z M 6.765625 0 "/></g></g></g><g fill="#cdd6f4" fill-opacity="1"><g transform="translate(41.714308, 22.500002)"><g><path d="M 6.765625 -7 L 3.953125 0 L 2.765625 0 L -0.046875 -7 L 0.984375 -7 C 1.097656 -7 1.191406 -6.96875 1.265625 -6.90625 C 1.335938 -6.851562 1.390625 -6.785156 1.421875 -6.703125 L 3.078125 -2.4375 C 3.128906 -2.289062 3.179688 -2.132812 3.234375 -1.96875 C 3.285156 -1.800781 3.332031 -1.628906 3.375 -1.453125 C 3.414062 -1.628906 3.457031 -1.800781 3.5 -1.96875 C 3.539062 -2.132812 3.59375 -2.289062 3.65625 -2.4375 L 5.296875 -6.703125 C 5.316406 -6.773438 5.363281 -6.84375 5.4375 -6.90625 C 5.519531 -6.96875 5.613281 -7 5.71875 -7 Z M 6.765625 -7 "/></g></g></g><g fill="#cdd6f4" fill-opacity="1"><g transform="translate(48.432625, 22.500002)"><g><path d="M 2.078125 -5.953125 L 2.078125 -4.015625 L 4.53125 -4.015625 L 4.53125 -3.015625 L 2.078125 -3.015625 L 2.078125 -1.046875 L 5.1875 -1.046875 L 5.1875 0 L 0.78125 0 L 0.78125 -7 L 5.1875 -7 L 5.1875 -5.953125 Z M 2.078125 -5.953125 "/></g></g></g><g fill="#cdd6f4" fill-opacity="1"><g transform="translate(53.994952, 22.500002)"><g><path d="M 4.875 -1.078125 L 4.875 0 L 0.78125 0 L 0.78125 -7 L 2.078125 -7 L 2.078125 -1.078125 Z M 4.875 -1.078125 "/></g></g></g><g fill="#cdd6f4" fill-opacity="1"><g transform="translate(59.020388, 22.500002)"><g><path d="M 2.078125 -5.953125 L 2.078125 -4.015625 L 4.53125 -4.015625 L 4.53125 -3.015625 L 2.078125 -3.015625 L 2.078125 -1.046875 L 5.1875 -1.046875 L 5.1875 0 L 0.78125 0 L 0.78125 -7 L 5.1875 -7 L 5.1875 -5.953125 Z M 2.078125 -5.953125 "/></g></g></g><g fill="#cdd6f4" fill-opacity="1"><g transform="translate(64.582715, 22.500002)"><g><path d="M 2.890625 -3.671875 C 3.140625 -3.671875 3.351562 -3.695312 3.53125 -3.75 C 3.71875 -3.8125 3.867188 -3.894531 3.984375 -4 C 4.097656 -4.113281 4.179688 -4.242188 4.234375 -4.390625 C 4.296875 -4.546875 4.328125 -4.710938 4.328125 -4.890625 C 4.328125 -5.242188 4.207031 -5.515625 3.96875 -5.703125 C 3.738281 -5.890625 3.382812 -5.984375 2.90625 -5.984375 L 2.078125 -5.984375 L 2.078125 -3.671875 Z M 6.234375 0 L 5.0625 0 C 4.84375 0 4.679688 -0.0859375 4.578125 -0.265625 L 3.109375 -2.5 C 3.054688 -2.582031 2.992188 -2.640625 2.921875 -2.671875 C 2.859375 -2.710938 2.765625 -2.734375 2.640625 -2.734375 L 2.078125 -2.734375 L 2.078125 0 L 0.78125 0 L 0.78125 -7 L 2.90625 -7 C 3.382812 -7 3.789062 -6.945312 4.125 -6.84375 C 4.46875 -6.75 4.75 -6.613281 4.96875 -6.4375 C 5.1875 -6.257812 5.347656 -6.046875 5.453125 -5.796875 C 5.554688 -5.546875 5.609375 -5.273438 5.609375 -4.984375 C 5.609375 -4.742188 5.570312 -4.519531 5.5 -4.3125 C 5.425781 -4.101562 5.320312 -3.910156 5.1875 -3.734375 C 5.0625 -3.566406 4.898438 -3.414062 4.703125 -3.28125 C 4.515625 -3.15625 4.300781 -3.054688 4.0625 -2.984375 C 4.144531 -2.941406 4.222656 -2.882812 4.296875 -2.8125 C 4.367188 -2.75 4.429688 -2.671875 4.484375 -2.578125 Z M 6.234375 0 "/></g></g></g></svg>